HIERARCHY
ROOT Hips
{
    OFFSET 0.000000 0.000000 0.000000
    CHANNELS 6 Xposition Yposition Zposition Zrotation Xrotation Yrotation
    JOINT Spine
    {
        OFFSET -0.000000 8.079700 0.000000
        CHANNELS 3 Zrotation Xrotation Yrotation
        JOINT Spine1
        {
            OFFSET -0.000000 23.289207 0.000000
            CHANNELS 3 Zrotation Xrotation Yrotation
            JOINT Neck
            {
                OFFSET -0.000000 23.193563 2.108506
                CHANNELS 3 Zrotation Xrotation Yrotation
                JOINT Head
                {
                    OFFSET -0.000000 13.794610 -1.970658
                    CHANNELS 3 Zrotation Xrotation Yrotation
                    End Site
                    {
                        OFFSET -0.000000 24.633232 0.000000
                    }
                }
            }
            JOINT LeftShoulder
            {
                OFFSET 3.964071 21.437269 -0.109506
                CHANNELS 3 Zrotation Xrotation Yrotation
                JOINT LeftArm
                {
                    OFFSET 10.889085 0.000000 0.000000
                    CHANNELS 3 Zrotation Xrotation Yrotation
                    JOINT LeftForeArm
                    {
                        OFFSET 33.323662 0.000000 0.000000
                        CHANNELS 3 Zrotation Xrotation Yrotation
                        JOINT LeftHand
                        {
                            OFFSET 25.127829 0.000000 0.000000
                            CHANNELS 3 Zrotation Xrotation Yrotation
                            End Site
                            {
                                OFFSET 14.779941 0.000000 0.000000
                            }
                        }
                    }
                }
            }
            JOINT RightShoulder
            {
                OFFSET -3.907116 21.437269 -0.109506
                CHANNELS 3 Zrotation Xrotation Yrotation
                JOINT RightArm
                {
                    OFFSET -10.889085 0.000000 0.000000
                    CHANNELS 3 Zrotation Xrotation Yrotation
                    JOINT RightForeArm
                    {
                        OFFSET -33.323662 0.000000 0.000000
                        CHANNELS 3 Zrotation Xrotation Yrotation
                        JOINT RightHand
                        {
                            OFFSET -25.127829 0.000000 0.000000
                            CHANNELS 3 Zrotation Xrotation Yrotation
                            End Site
                            {
                                OFFSET -14.779941 0.000000 0.000000
                            }
                        }
                    }
                }
            }
        }
    }
    JOINT LeftUpLeg
    {
        OFFSET 9.853293 0.000000 0.000000
        CHANNELS 3 Zrotation Xrotation Yrotation
        JOINT LeftLeg
        {
            OFFSET -0.000000 -42.191887 0.000000
            CHANNELS 3 Zrotation Xrotation Yrotation
            JOINT LeftFoot
            {
                OFFSET -0.000000 -39.359688 0.000000
                CHANNELS 3 Zrotation Xrotation Yrotation
                JOINT LeftToeBase
                {
                    OFFSET -0.000000 -6.404640 14.779941
                    CHANNELS 3 Zrotation Xrotation Yrotation
                    End Site
                    {
                        OFFSET -0.000000 0.000000 3.941317
                    }
                }
            }
        }
    }
    JOINT RightUpLeg
    {
        OFFSET -9.853293 0.000000 0.000000
        CHANNELS 3 Zrotation Xrotation Yrotation
        JOINT RightLeg
        {
            OFFSET -0.000000 -42.191887 0.000000
            CHANNELS 3 Zrotation Xrotation Yrotation
            JOINT RightFoot
            {
                OFFSET -0.000000 -39.359688 0.000000
                CHANNELS 3 Zrotation Xrotation Yrotation
                JOINT RightToeBase
                {
                    OFFSET -0.000000 -6.404640 14.779941
                    CHANNELS 3 Zrotation Xrotation Yrotation
                    End Site
                    {
                        OFFSET -0.000000 0.000000 3.941317
                    }
                }
            }
        }
    }
}
MOTION
Frames:    7
Frame Time:    0.008333
-12.113668    92.131386    91.666389    -2.737617    -1.175647    -174.992432    -4.988971    -2.496188    -1.207818    3.227960    1.729445    -1.147854    5.019168    14.051955    4.676329    -6.730378    1.045677    3.863812    14.253028    3.888712    4.043732    -23.415392    -2.392279    -4.729255    3.585540    1.297229    -4.529380    11.050845    1.199157    -2.480096    -13.666315    1.281257    -4.011187    30.347717    -3.514418    1.511237    -2.207752    -9.636910    -1.027987    -3.733007    -9.644954    -0.357411    -4.405883    2.108963    -1.129642    -0.409460    -0.598504    10.066170    3.479130    1.953036    12.239142    0.000000    0.000000    0.000000    -5.977610    5.511712    -3.108877    7.622459    1.762914    -3.409709    -15.127574    -5.748847    -12.223357    0.000000    0.000000    0.000000    
-12.102387    92.133675    91.664864    -2.708931    -1.168101    -175.017853    -4.980453    -2.477682    -1.186564    3.264052    1.724777    -1.127985    5.044063    14.053051    4.661853    -6.804726    1.031615    3.837481    14.248302    3.866767    4.059039    -23.425335    -2.335498    -4.748278    3.599712    1.272612    -4.523056    11.039000    1.173479    -2.497781    -13.663744    1.293381    -4.037477    30.343353    -3.567767    1.534283    -2.206587    -9.612368    -1.064326    -3.742608    -9.620666    -0.369865    -4.367877    2.117210    -1.115897    -0.416872    -0.602507    10.047082    3.618896    1.927921    12.243207    0.000000    0.000000    0.000000    -5.938842    5.504381    -3.095743    7.616100    1.778043    -3.423223    -15.131095    -5.736224    -12.202050    0.000000    0.000000    0.000000    
-12.094495    92.132393    91.663277    -2.717409    -1.164006    -175.030563    -5.002362    -2.459979    -1.178162    3.284912    1.721200    -1.120067    5.057524    14.035378    4.673864    -6.842935    1.046952    3.844652    14.247270    3.868261    4.062002    -23.428932    -2.313304    -4.745734    3.598991    1.258742    -4.522516    11.020112    1.158638    -2.511477    -13.648939    1.281224    -4.043922    30.324287    -3.604320    1.534435    -2.186321    -9.593038    -1.085794    -3.757898    -9.601225    -0.378475    -4.374418    2.127498    -1.098830    -0.408103    -0.613795    10.070610    3.620080    1.929665    12.207277    0.000000    0.000000    0.000000    -5.950729    5.520260    -3.078308    7.631908    1.753535    -3.384545    -15.152180    -5.723043    -12.234851    0.000000    0.000000    0.000000    
-12.094465    92.130501    91.659843    -2.713863    -1.186716    -174.991043    -4.989088    -2.474471    -1.200266    3.278505    1.708807    -1.141408    5.238169    14.089966    4.670784    -7.168486    1.031144    3.795756    14.258233    3.876312    4.040680    -23.449516    -2.316173    -4.712427    3.595279    1.266601    -4.518779    11.015688    1.166026    -2.514789    -13.636736    1.294026    -4.048544    30.319042    -3.636811    1.553042    -2.177495    -9.592709    -1.104337    -3.837822    -9.600163    -0.400595    -4.377540    2.101664    -1.128232    -0.400508    -0.608858    10.084249    3.620835    1.931966    12.191301    0.000000    0.000000    0.000000    -5.946704    5.525822    -3.071432    7.636997    1.715708    -3.426111    -15.149337    -5.718869    -12.233316    0.000000    0.000000    0.000000    
-12.084400    92.129013    91.655090    -2.718941    -1.176525    -175.018921    -5.015774    -2.454565    -1.181541    3.311510    1.708544    -1.123429    5.193773    14.048229    4.673461    -7.106258    1.076373    3.808520    14.261518    3.881778    4.045125    -23.455311    -2.285202    -4.717516    3.589246    1.262354    -4.517775    10.978614    1.162693    -2.511156    -13.645969    1.294282    -4.055147    30.326641    -3.636961    1.547477    -2.172821    -9.596787    -1.119671    -3.853087    -9.603617    -0.425474    -4.379043    2.121551    -1.072229    -0.392317    -0.622936    10.069169    3.605383    1.937970    12.180970    0.000000    0.000000    0.000000    -5.938056    5.519184    -3.093644    7.618860    1.743400    -3.455154    -15.147361    -5.755116    -12.171647    0.000000    0.000000    0.000000    
-12.083978    92.128387    91.649834    -2.716266    -1.195727    -174.984543    -5.006097    -2.478596    -1.200232    3.306956    1.730715    -1.141859    5.056141    14.021700    4.683668    -6.881414    1.048026    3.849168    14.266207    3.877604    4.076795    -23.454298    -2.253111    -4.742189    3.568260    1.276246    -4.501819    10.971333    1.175723    -2.508049    -13.665328    1.270083    -4.065264    30.343731    -3.618200    1.548835    -2.162996    -9.597552    -1.136181    -3.860474    -9.604018    -0.441953    -4.382376    2.106771    -1.106408    -0.383180    -0.631277    10.083345    3.611355    1.939991    12.173169    0.000000    0.000000    0.000000    -5.930709    5.526236    -3.099974    7.617311    1.708774    -3.470921    -15.135056    -5.738674    -12.179127    0.000000    0.000000    0.000000    
-12.075692    92.126213    91.649132    -2.728068    -1.187662    -175.012650    -5.023837    -2.439157    -1.188169    3.318955    1.696548    -1.130266    5.049618    14.032948    4.694253    -6.886094    1.031542    3.859268    14.244203    3.892001    4.096950    -23.422550    -2.219159    -4.746209    3.545390    1.294119    -4.494850    10.949623    1.194078    -2.496489    -13.656808    1.279917    -4.073011    30.340605    -3.559778    1.568389    -2.165484    -9.626392    -1.158521    -3.886744    -9.632337    -0.467616    -4.388655    2.121963    -1.068205    -0.379815    -0.638696    10.052361    3.601982    1.948821    12.188127    0.000000    0.000000    0.000000    -5.934563    5.520118    -3.117959    7.604645    1.736511    -3.392001    -15.150810    -5.755429    -12.210425    0.000000    0.000000    0.000000    
